<?xml version="1.0" encoding="UTF-8"?>
<svg version="1.1" xmlns="http://www.w3.org/2000/svg" width="256" height="256">
<path d="M0 0 C8.25 0 16.5 0 25 0 C25 39.6 25 79.2 25 120 C16.75 119.34 8.5 118.68 0 118 C-0.33 103.48 -0.66 88.96 -1 74 C-7.93 93.305 -7.93 93.305 -15 113 C-23.25 113 -31.5 113 -40 113 C-40.71027344 110.50824219 -41.42054687 108.01648438 -42.15234375 105.44921875 C-42.84057957 103.0364942 -43.52904334 100.62383482 -44.2175293 98.21118164 C-44.69595805 96.53416637 -45.17414972 94.85708345 -45.65209961 93.17993164 C-46.33905747 90.76951565 -47.02686705 88.35934411 -47.71484375 85.94921875 C-48.03520851 84.82407112 -48.03520851 84.82407112 -48.36204529 83.67619324 C-49.193798 80.76490178 -50.04239103 77.8728269 -51 75 C-51.02505615 76.26706787 -51.0501123 77.53413574 -51.07592773 78.83959961 C-51.16981996 83.52297779 -51.27008435 88.2062013 -51.37231445 92.8894043 C-51.41573241 94.91964104 -51.45740226 96.94991592 -51.49731445 98.98022461 C-51.55485146 101.89188151 -51.61859278 104.80334514 -51.68359375 107.71484375 C-51.70866249 109.08514992 -51.70866249 109.08514992 -51.73423767 110.48313904 C-51.88612829 116.88612829 -51.88612829 116.88612829 -53 118 C-60.59 118.33 -68.18 118.66 -76 119 C-76 80.06 -76 41.12 -76 1 C-68.08 1 -60.16 1 -52 1 C-51.37996094 2.72476563 -50.75992188 4.44953125 -50.12109375 6.2265625 C-44.59048905 21.5095022 -38.84023601 36.69358538 -32.875 51.8125 C-32.37249222 53.08966888 -32.37249222 53.08966888 -31.85983276 54.39263916 C-30.90721795 56.81124457 -29.95058484 59.22821222 -28.9921875 61.64453125 C-28.70411728 62.37544479 -28.41604706 63.10635834 -28.11924744 63.85942078 C-26.96932137 67.17688688 -26.96932137 67.17688688 -25 70 C-24.59797363 68.83879639 -24.19594727 67.67759277 -23.78173828 66.48120117 C-16.07429886 44.23396905 -8.2813787 22.04120794 0 0 Z " fill="#EE0000" transform="translate(152,66)"/>
<path d="M0 0 C0.33 0 0.66 0 1 0 C1 39.6 1 79.2 1 120 C-7.25 119.34 -15.5 118.68 -24 118 C-27.58141248 88.09379583 -24.60216324 63.92392255 -14.25 35.9375 C-13.99217491 35.2394865 -13.73434982 34.54147301 -13.46871185 33.82230759 C-9.24827261 22.44265548 -4.85457411 11.12590359 0 0 Z " fill="#B40000" transform="translate(176,66)"/>
<path d="M0 0 C1.90950147 2.86425221 2.88797355 5.20176595 4.01538086 8.43017578 C4.40596176 9.54208282 4.79654266 10.65398987 5.19895935 11.79959106 C5.6167012 13.00267914 6.03444305 14.20576721 6.46484375 15.4453125 C6.89881973 16.68489716 7.33279572 17.92448181 7.77992249 19.20162964 C8.93496433 22.50125229 10.08481521 25.80266181 11.23370361 29.10443115 C12.16472818 31.77736222 13.09935162 34.44902754 14.03420162 37.12062263 C19.24135965 52.00224288 19.24135965 52.00224288 20.96963501 57.04522705 C21.60097049 58.85570492 22.25524148 60.65863099 22.9480896 62.44647217 C25.14844411 68.29660634 25.33679125 73.47564979 25.109375 79.6875 C25.08530579 80.67121582 25.06123657 81.65493164 25.03643799 82.66845703 C24.98313272 84.72921175 24.9222177 86.78978255 24.85400391 88.85009766 C24.74939541 92.01831075 24.66763702 95.18649396 24.58984375 98.35546875 C24.53516412 100.36201529 24.47922052 102.36852788 24.421875 104.375 C24.38268951 105.80138794 24.38268951 105.80138794 24.3427124 107.2565918 C24.31308411 108.12840088 24.28345581 109.00020996 24.25292969 109.8984375 C24.22833679 110.66849121 24.2037439 111.43854492 24.17840576 112.23193359 C24 114 24 114 23 115 C15.41 115.33 7.82 115.66 0 116 C0 77.72 0 39.44 0 0 Z " fill="#BA0000" transform="translate(76,69)"/>
<path d="M0 0 C1.41478229 3.83209241 0.58769308 6.55367724 -0.4375 10.4375 C-0.69950195 11.43861816 -0.69950195 11.43861816 -0.96679688 12.45996094 C-1.63195889 14.97681986 -2.31576812 17.48825723 -3 20 C-3.30180176 21.11971191 -3.60360352 22.23942383 -3.91455078 23.39306641 C-4.93672027 27.18045753 -5.96667844 30.96563688 -7 34.75 C-7.33185303 35.96872803 -7.66370605 37.18745605 -8.00561523 38.44311523 C-10.29412543 46.73692792 -12.72884761 54.98633242 -15.77058411 63.04039001 C-17.73879753 68.45865487 -18.46359298 73.22703093 -18.51171875 78.97265625 C-18.52966995 79.78117538 -18.54762115 80.58969452 -18.56611633 81.42271423 C-18.61968544 83.96925862 -18.65394079 86.51562157 -18.6875 89.0625 C-18.72072044 90.80406144 -18.75521437 92.54559908 -18.79101562 94.28710938 C-18.87537993 98.52460737 -18.94244258 102.76205658 -19 107 C-19.33 107 -19.66 107 -20 107 C-23.33406366 78.46749696 -21.14576189 54.39374444 -11.125 27.625 C-10.88702194 26.9885619 -10.64904388 26.35212379 -10.40385437 25.69639969 C-3.02015986 6.04031972 -3.02015986 6.04031972 0 0 Z " fill="#9D0003" transform="translate(172,77)"/>
<path d="M0 0 C14.449667 14.449667 20.96246841 50.34753412 20.96531677 69.86178589 C20.77567813 79.60406718 20.07072581 89.31706498 19 99 C18.67 99 18.34 99 18 99 C17.67 87.12 17.34 75.24 17 63 C16.67 63 16.34 63 16 63 C15.95101562 62.36191406 15.90203125 61.72382813 15.8515625 61.06640625 C15.77679688 60.24011719 15.70203125 59.41382813 15.625 58.5625 C15.55539063 57.73878906 15.48578125 56.91507813 15.4140625 56.06640625 C15.27742188 55.38449219 15.14078125 54.70257813 15 54 C14.34 53.67 13.68 53.34 13 53 C12.1484375 50.453125 12.1484375 50.453125 11.375 47.25 C11.11460938 46.20328125 10.85421875 45.1565625 10.5859375 44.078125 C10.05464356 41.28706084 9.8847319 38.82930789 10 36 C9.34 36 8.68 36 8 36 C7.86424561 35.38068604 7.72849121 34.76137207 7.58862305 34.12329102 C6.959888 31.26857313 6.3237402 28.41555417 5.6875 25.5625 C5.47416016 24.58861328 5.26082031 23.61472656 5.04101562 22.61132812 C3.83635361 17.23529912 2.45790627 12.0433654 0.58007812 6.86132812 C-0.14786969 4.52552249 -0.23497341 2.42805862 0 0 Z " fill="#8D0003" transform="translate(81,84)"/>
<path d="M0 0 C0.66 0 1.32 0 2 0 C1.62275947 3.68398953 0.77770542 6.65893141 -0.8125 9.96484375 C-10.20896211 30.6589226 -8.19805948 53.74994314 -8 76 C-8.33 76 -8.66 76 -9 76 C-12.29903537 23.81993569 -12.29903537 23.81993569 0 0 Z " fill="#790003" transform="translate(161,108)"/>
<path d="M0 0 C2 1.5625 2 1.5625 4 4 C4.25 7.75 4.25 7.75 4 11 C4.66 11 5.32 11 6 11 C7.58177926 15.15217057 8.40478458 18.54736965 8 23 C7.34 23.66 6.68 24.32 6 25 C5.92652344 24.04287109 5.92652344 24.04287109 5.8515625 23.06640625 C5.77679688 22.24011719 5.70203125 21.41382813 5.625 20.5625 C5.52058594 19.32693359 5.52058594 19.32693359 5.4140625 18.06640625 C5.27742188 17.38449219 5.14078125 16.70257813 5 16 C4.34 15.67 3.68 15.34 3 15 C2.1484375 12.3828125 2.1484375 12.3828125 1.375 9.125 C1.11460938 8.05507812 0.85421875 6.98515625 0.5859375 5.8828125 C0 3 0 3 0 0 Z " fill="#9E0003" transform="translate(91,122)"/>
</svg>
